<?xml version="1.0" encoding="UTF-8"?>
<svg id="Layer_1" data-name="Layer 1" xmlns="http://www.w3.org/2000/svg" viewBox="0 0 1000 300">
  <defs>
    <style>
      .cls-1 {
        fill: #fefefe;
      }

      .cls-2 {
        fill: #39f;
      }
    </style>
  </defs>
  <path class="cls-1" d="M1000,0v300H0V0h1000ZM398,176c7.83-11.47,29.99-27.76,31.91-41.59,2.7-19.46-11.68-27.37-29.31-25.31-1.63.19-13.02,3.48-13.49,4.01-.74.84.28,8.86-.11,10.89,17.84-13.37,43.91-5.77,28.4,18.91-4.72,7.51-28.59,30.04-29.35,34.64-.34,2.08.06,4.34-.06,6.45h45v-8h-33ZM551.99,123.99c1.52-9.3-1.51-13.29-10.74-14.75-25.19-4-36.02,15.82-35.88,38.09.13,21.98,10.26,40.89,35.04,37.58,9.35-1.25,13.35-5.24,11.58-14.91-3.3.79-5.13,3.67-8.46,5.03-25.73,10.54-29.8-22.6-26.28-40.28,2.67-13.39,11.75-21.11,25.43-15.94,3.59,1.36,5.89,4.04,9.31,5.18ZM356.5,111c-8.66-1.35-20.47,1-29.5,0v73h30.5c.46,0,7.53-2.89,8.55-3.45,13.95-7.71,10.59-30.47-4.05-36.05,17.08-6.2,11.66-30.81-5.5-33.5ZM476.5,111c-8.66-1.35-20.47,1-29.5,0v73h30.5c.46,0,7.53-2.89,8.55-3.45,13.95-7.71,10.59-30.47-4.05-36.05,17.08-6.2,11.66-30.81-5.5-33.5ZM617,111h-56v8h23v65h10v-65h23v-8ZM653.5,111c-8.34-1.13-18.9.83-27.5,0v73h10v-31c11.27-.47,16.21-.64,22.17,9.33,1.89,3.16,8.99,20.88,9.99,21.51,1.53.96,8.43-.34,10.84.16-6-11.84-9.75-26.54-20.99-34.5,20.81-5.87,16.02-35.72-4.5-38.5ZM700,111h-11v73h46v-8h-35v-65ZM254.83,148.16c-1.46-2.37-45.78-17.26-51.83-20.16.35,2.59-1.02,7.83.99,9.5l40.01,15-40.01,15c-2.01,1.67-.64,6.91-.99,9.5l51.38-19.89c1-.77.97-8.1.45-8.94ZM799,201h-60v7h60v-7Z"/>
  <path class="cls-2" d="M356.5,111c17.16,2.68,22.58,27.29,5.5,33.5,14.63,5.58,17.99,28.34,4.05,36.05-1.02.56-8.09,3.45-8.55,3.45h-30.5v-73c9.03,1,20.84-1.35,29.5,0ZM337,141h15.5c7.99,0,12.54-12.5,7.54-18.54-.77-.93-5.75-3.46-6.54-3.46h-16.5v22ZM337,176h17.5c.27,0,4.22-1.76,4.85-2.15,9.44-5.85,5.07-24.85-5.85-24.85h-16.5v27Z"/>
  <path class="cls-2" d="M476.5,111c17.16,2.68,22.58,27.29,5.5,33.5,14.63,5.58,17.99,28.34,4.05,36.05-1.02.56-8.09,3.45-8.55,3.45h-30.5v-73c9.03,1,20.84-1.35,29.5,0ZM457,141h15.5c7.99,0,12.54-12.5,7.54-18.54-.77-.93-5.75-3.46-6.54-3.46h-16.5v22ZM457,176h17.5c.27,0,4.22-1.76,4.85-2.15,9.44-5.85,5.07-24.85-5.85-24.85h-16.5v27Z"/>
  <path class="cls-2" d="M653.5,111c20.53,2.77,25.31,32.62,4.5,38.5,11.24,7.96,14.99,22.66,20.99,34.5-2.4-.5-9.31.8-10.84-.16-1-.63-8.1-18.35-9.99-21.51-5.95-9.97-10.9-9.8-22.17-9.33v31h-10v-73c8.6.83,19.16-1.13,27.5,0ZM636,145h14.5c5.73,0,10.55-7.97,10.41-13.4-.13-5.11-4.99-12.6-10.41-12.6h-14.5v26Z"/>
  <path class="cls-2" d="M398,176h33v8h-45c.12-2.1-.29-4.37.06-6.45.76-4.61,24.63-27.13,29.35-34.64,15.51-24.68-10.56-32.29-28.4-18.91.39-2.02-.63-10.04.11-10.89.46-.53,11.86-3.81,13.49-4.01,17.62-2.07,32.01,5.84,29.31,25.31-1.92,13.83-24.08,30.12-31.91,41.59Z"/>
  <path class="cls-2" d="M551.99,123.99c-3.42-1.14-5.72-3.82-9.31-5.18-13.67-5.17-22.76,2.55-25.43,15.94-3.52,17.68.55,50.82,26.28,40.28,3.33-1.36,5.16-4.24,8.46-5.03,1.77,9.67-2.23,13.66-11.58,14.91-24.78,3.31-34.91-15.6-35.04-37.58-.13-22.27,10.69-42.1,35.88-38.09,9.23,1.47,12.26,5.46,10.74,14.75Z"/>
  <polygon class="cls-2" points="617 111 617 119 594 119 594 184 584 184 584 119 561 119 561 111 617 111"/>
  <polygon class="cls-2" points="700 111 700 176 735 176 735 184 689 184 689 111 700 111"/>
  <path class="cls-2" d="M254.83,148.16c.52.84.55,8.17-.45,8.94l-51.38,19.89c.35-2.59-1.02-7.83.99-9.5l40.01-15-40.01-15c-2.01-1.67-.64-6.91-.99-9.5,6.05,2.9,50.37,17.79,51.83,20.16Z"/>
  <rect class="cls-2" x="739" y="201" width="60" height="7"/>
  <path class="cls-1" d="M337,176v-27h16.5c10.92,0,15.29,19,5.85,24.85-.63.39-4.59,2.15-4.85,2.15h-17.5Z"/>
  <path class="cls-1" d="M337,141v-22h16.5c.78,0,5.77,2.54,6.54,3.46,5.01,6.04.46,18.54-7.54,18.54h-15.5Z"/>
  <path class="cls-1" d="M457,176v-27h16.5c10.92,0,15.29,19,5.85,24.85-.63.39-4.59,2.15-4.85,2.15h-17.5Z"/>
  <path class="cls-1" d="M457,141v-22h16.5c.78,0,5.77,2.54,6.54,3.46,5.01,6.04.46,18.54-7.54,18.54h-15.5Z"/>
  <path class="cls-1" d="M636,145v-26h14.5c5.42,0,10.28,7.49,10.41,12.6.14,5.44-4.67,13.4-10.41,13.4h-14.5Z"/>
</svg>